<svg width="750" height="497" viewBox="0 0 750 497" fill="none" xmlns="http://www.w3.org/2000/svg">
<g opacity="0.5">
<path opacity="0.5" d="M29.02 20.62C29.02 21.6 28.22 22.4 27.24 22.4C26.26 22.4 25.46 21.6 25.46 20.62C25.46 19.64 26.26 18.84 27.24 18.84C28.22 18.84 29.02 19.64 29.02 20.62Z" fill="white" fill-opacity="0.25"/>
<path opacity="0.5" d="M42.55 22.4C43.5331 22.4 44.33 21.6031 44.33 20.62C44.33 19.6369 43.5331 18.84 42.55 18.84C41.567 18.84 40.77 19.6369 40.77 20.62C40.77 21.6031 41.567 22.4 42.55 22.4Z" fill="white" fill-opacity="0.25"/>
<path opacity="0.5" d="M57.8501 22.4C58.8331 22.4 59.6301 21.6031 59.6301 20.62C59.6301 19.6369 58.8331 18.84 57.8501 18.84C56.867 18.84 56.0701 19.6369 56.0701 20.62C56.0701 21.6031 56.867 22.4 57.8501 22.4Z" fill="white" fill-opacity="0.25"/>
<path opacity="0.5" d="M74.9399 20.62C74.9399 21.6 74.1399 22.4 73.1599 22.4C72.1799 22.4 71.3799 21.6 71.3799 20.62C71.3799 19.64 72.1799 18.84 73.1599 18.84C74.1399 18.84 74.9399 19.64 74.9399 20.62Z" fill="white" fill-opacity="0.25"/>
<path opacity="0.5" d="M88.4599 22.4C89.443 22.4 90.2399 21.6031 90.2399 20.62C90.2399 19.6369 89.443 18.84 88.4599 18.84C87.4769 18.84 86.6799 19.6369 86.6799 20.62C86.6799 21.6031 87.4769 22.4 88.4599 22.4Z" fill="white" fill-opacity="0.25"/>
<path opacity="0.5" d="M103.77 22.4C104.753 22.4 105.55 21.6031 105.55 20.62C105.55 19.6369 104.753 18.84 103.77 18.84C102.787 18.84 101.99 19.6369 101.99 20.62C101.99 21.6031 102.787 22.4 103.77 22.4Z" fill="white" fill-opacity="0.25"/>
<path opacity="0.5" d="M119.07 22.4C120.053 22.4 120.85 21.6031 120.85 20.62C120.85 19.6369 120.053 18.84 119.07 18.84C118.087 18.84 117.29 19.6369 117.29 20.62C117.29 21.6031 118.087 22.4 119.07 22.4Z" fill="white" fill-opacity="0.25"/>
<path opacity="0.5" d="M134.38 22.4C135.363 22.4 136.16 21.6031 136.16 20.62C136.16 19.6369 135.363 18.84 134.38 18.84C133.397 18.84 132.6 19.6369 132.6 20.62C132.6 21.6031 133.397 22.4 134.38 22.4Z" fill="white" fill-opacity="0.25"/>
<path opacity="0.5" d="M29.02 35.92C29.02 36.9 28.22 37.7 27.24 37.7C26.26 37.7 25.46 36.9 25.46 35.92C25.46 34.94 26.26 34.14 27.24 34.14C28.22 34.15 29.02 34.94 29.02 35.92Z" fill="white" fill-opacity="0.25"/>
<path opacity="0.5" d="M42.55 37.7C43.5331 37.7 44.33 36.9031 44.33 35.92C44.33 34.9369 43.5331 34.14 42.55 34.14C41.567 34.14 40.77 34.9369 40.77 35.92C40.77 36.9031 41.567 37.7 42.55 37.7Z" fill="white" fill-opacity="0.25"/>
<path opacity="0.5" d="M57.8501 37.7C58.8331 37.7 59.6301 36.9031 59.6301 35.92C59.6301 34.9369 58.8331 34.14 57.8501 34.14C56.867 34.14 56.0701 34.9369 56.0701 35.92C56.0701 36.9031 56.867 37.7 57.8501 37.7Z" fill="white" fill-opacity="0.25"/>
<path opacity="0.5" d="M74.9399 35.92C74.9399 36.9 74.1399 37.7 73.1599 37.7C72.1799 37.7 71.3799 36.9 71.3799 35.92C71.3799 34.94 72.1799 34.14 73.1599 34.14C74.1399 34.15 74.9399 34.94 74.9399 35.92Z" fill="white" fill-opacity="0.25"/>
<path opacity="0.5" d="M88.4599 37.7C89.443 37.7 90.2399 36.9031 90.2399 35.92C90.2399 34.9369 89.443 34.14 88.4599 34.14C87.4769 34.14 86.6799 34.9369 86.6799 35.92C86.6799 36.9031 87.4769 37.7 88.4599 37.7Z" fill="white" fill-opacity="0.25"/>
<path opacity="0.5" d="M103.77 37.7C104.753 37.7 105.55 36.9031 105.55 35.92C105.55 34.9369 104.753 34.14 103.77 34.14C102.787 34.14 101.99 34.9369 101.99 35.92C101.99 36.9031 102.787 37.7 103.77 37.7Z" fill="white" fill-opacity="0.25"/>
<path opacity="0.5" d="M119.07 37.7C120.053 37.7 120.85 36.9031 120.85 35.92C120.85 34.9369 120.053 34.14 119.07 34.14C118.087 34.14 117.29 34.9369 117.29 35.92C117.29 36.9031 118.087 37.7 119.07 37.7Z" fill="white" fill-opacity="0.25"/>
<path opacity="0.5" d="M134.38 37.7C135.363 37.7 136.16 36.9031 136.16 35.92C136.16 34.9369 135.363 34.14 134.38 34.14C133.397 34.14 132.6 34.9369 132.6 35.92C132.6 36.9031 133.397 37.7 134.38 37.7Z" fill="white" fill-opacity="0.25"/>
<path opacity="0.5" d="M29.02 51.23C29.02 52.21 28.22 53.01 27.24 53.01C26.26 53.01 25.46 52.21 25.46 51.23C25.46 50.25 26.26 49.45 27.24 49.45C28.22 49.45 29.02 50.25 29.02 51.23Z" fill="white" fill-opacity="0.25"/>
<path opacity="0.5" d="M42.55 53.01C43.5331 53.01 44.33 52.2131 44.33 51.23C44.33 50.2469 43.5331 49.45 42.55 49.45C41.567 49.45 40.77 50.2469 40.77 51.23C40.77 52.2131 41.567 53.01 42.55 53.01Z" fill="white" fill-opacity="0.25"/>
<path opacity="0.5" d="M57.8501 53.01C58.8331 53.01 59.6301 52.2131 59.6301 51.23C59.6301 50.2469 58.8331 49.45 57.8501 49.45C56.867 49.45 56.0701 50.2469 56.0701 51.23C56.0701 52.2131 56.867 53.01 57.8501 53.01Z" fill="white" fill-opacity="0.25"/>
<path opacity="0.5" d="M74.9399 51.23C74.9399 52.21 74.1399 53.01 73.1599 53.01C72.1799 53.01 71.3799 52.21 71.3799 51.23C71.3799 50.25 72.1799 49.45 73.1599 49.45C74.1399 49.45 74.9399 50.25 74.9399 51.23Z" fill="white" fill-opacity="0.25"/>
<path opacity="0.5" d="M88.4599 53.01C89.443 53.01 90.2399 52.2131 90.2399 51.23C90.2399 50.2469 89.443 49.45 88.4599 49.45C87.4769 49.45 86.6799 50.2469 86.6799 51.23C86.6799 52.2131 87.4769 53.01 88.4599 53.01Z" fill="white" fill-opacity="0.25"/>
<path opacity="0.5" d="M103.77 53.01C104.753 53.01 105.55 52.2131 105.55 51.23C105.55 50.2469 104.753 49.45 103.77 49.45C102.787 49.45 101.99 50.2469 101.99 51.23C101.99 52.2131 102.787 53.01 103.77 53.01Z" fill="white" fill-opacity="0.25"/>
<path opacity="0.5" d="M119.07 53.01C120.053 53.01 120.85 52.2131 120.85 51.23C120.85 50.2469 120.053 49.45 119.07 49.45C118.087 49.45 117.29 50.2469 117.29 51.23C117.29 52.2131 118.087 53.01 119.07 53.01Z" fill="white" fill-opacity="0.25"/>
<path opacity="0.5" d="M134.38 53.01C135.363 53.01 136.16 52.2131 136.16 51.23C136.16 50.2469 135.363 49.45 134.38 49.45C133.397 49.45 132.6 50.2469 132.6 51.23C132.6 52.2131 133.397 53.01 134.38 53.01Z" fill="white" fill-opacity="0.25"/>
<path opacity="0.5" d="M29.02 66.53C29.02 67.51 28.22 68.31 27.24 68.31C26.26 68.31 25.46 67.51 25.46 66.53C25.46 65.55 26.26 64.75 27.24 64.75C28.22 64.76 29.02 65.55 29.02 66.53Z" fill="white" fill-opacity="0.25"/>
<path opacity="0.5" d="M42.55 68.31C43.5331 68.31 44.33 67.5131 44.33 66.53C44.33 65.5469 43.5331 64.75 42.55 64.75C41.567 64.75 40.77 65.5469 40.77 66.53C40.77 67.5131 41.567 68.31 42.55 68.31Z" fill="white" fill-opacity="0.25"/>
<path opacity="0.5" d="M57.8501 68.31C58.8331 68.31 59.6301 67.5131 59.6301 66.53C59.6301 65.5469 58.8331 64.75 57.8501 64.75C56.867 64.75 56.0701 65.5469 56.0701 66.53C56.0701 67.5131 56.867 68.31 57.8501 68.31Z" fill="white" fill-opacity="0.25"/>
<path opacity="0.5" d="M74.9399 66.53C74.9399 67.51 74.1399 68.31 73.1599 68.31C72.1799 68.31 71.3799 67.51 71.3799 66.53C71.3799 65.55 72.1799 64.75 73.1599 64.75C74.1399 64.76 74.9399 65.55 74.9399 66.53Z" fill="white" fill-opacity="0.25"/>
<path opacity="0.5" d="M88.4599 68.31C89.443 68.31 90.2399 67.5131 90.2399 66.53C90.2399 65.5469 89.443 64.75 88.4599 64.75C87.4769 64.75 86.6799 65.5469 86.6799 66.53C86.6799 67.5131 87.4769 68.31 88.4599 68.31Z" fill="white" fill-opacity="0.25"/>
<path opacity="0.5" d="M103.77 68.31C104.753 68.31 105.55 67.5131 105.55 66.53C105.55 65.5469 104.753 64.75 103.77 64.75C102.787 64.75 101.99 65.5469 101.99 66.53C101.99 67.5131 102.787 68.31 103.77 68.31Z" fill="white" fill-opacity="0.25"/>
<path opacity="0.5" d="M119.07 68.31C120.053 68.31 120.85 67.5131 120.85 66.53C120.85 65.5469 120.053 64.75 119.07 64.75C118.087 64.75 117.29 65.5469 117.29 66.53C117.29 67.5131 118.087 68.31 119.07 68.31Z" fill="white" fill-opacity="0.25"/>
<path opacity="0.5" d="M134.38 68.31C135.363 68.31 136.16 67.5131 136.16 66.53C136.16 65.5469 135.363 64.75 134.38 64.75C133.397 64.75 132.6 65.5469 132.6 66.53C132.6 67.5131 133.397 68.31 134.38 68.31Z" fill="white" fill-opacity="0.25"/>
<path opacity="0.5" d="M29.02 81.84C29.02 82.82 28.22 83.62 27.24 83.62C26.26 83.62 25.46 82.82 25.46 81.84C25.46 80.86 26.26 80.06 27.24 80.06C28.22 80.06 29.02 80.86 29.02 81.84Z" fill="white" fill-opacity="0.25"/>
<path opacity="0.5" d="M42.55 83.62C43.5331 83.62 44.33 82.8231 44.33 81.84C44.33 80.8569 43.5331 80.06 42.55 80.06C41.567 80.06 40.77 80.8569 40.77 81.84C40.77 82.8231 41.567 83.62 42.55 83.62Z" fill="white" fill-opacity="0.25"/>
<path opacity="0.5" d="M57.8501 83.62C58.8331 83.62 59.6301 82.8231 59.6301 81.84C59.6301 80.8569 58.8331 80.06 57.8501 80.06C56.867 80.06 56.0701 80.8569 56.0701 81.84C56.0701 82.8231 56.867 83.62 57.8501 83.62Z" fill="white" fill-opacity="0.25"/>
<path opacity="0.5" d="M74.9399 81.84C74.9399 82.82 74.1399 83.62 73.1599 83.62C72.1799 83.62 71.3799 82.82 71.3799 81.84C71.3799 80.86 72.1799 80.06 73.1599 80.06C74.1399 80.06 74.9399 80.86 74.9399 81.84Z" fill="white" fill-opacity="0.25"/>
<path opacity="0.5" d="M88.4599 83.62C89.443 83.62 90.2399 82.8231 90.2399 81.84C90.2399 80.8569 89.443 80.06 88.4599 80.06C87.4769 80.06 86.6799 80.8569 86.6799 81.84C86.6799 82.8231 87.4769 83.62 88.4599 83.62Z" fill="white" fill-opacity="0.25"/>
<path opacity="0.5" d="M103.77 83.62C104.753 83.62 105.55 82.8231 105.55 81.84C105.55 80.8569 104.753 80.06 103.77 80.06C102.787 80.06 101.99 80.8569 101.99 81.84C101.99 82.8231 102.787 83.62 103.77 83.62Z" fill="white" fill-opacity="0.25"/>
<path opacity="0.5" d="M119.07 83.62C120.053 83.62 120.85 82.8231 120.85 81.84C120.85 80.8569 120.053 80.06 119.07 80.06C118.087 80.06 117.29 80.8569 117.29 81.84C117.29 82.8231 118.087 83.62 119.07 83.62Z" fill="white" fill-opacity="0.25"/>
<path opacity="0.5" d="M134.38 83.62C135.363 83.62 136.16 82.8231 136.16 81.84C136.16 80.8569 135.363 80.06 134.38 80.06C133.397 80.06 132.6 80.8569 132.6 81.84C132.6 82.8231 133.397 83.62 134.38 83.62Z" fill="white" fill-opacity="0.25"/>
<path opacity="0.5" d="M29.02 97.15C29.02 98.13 28.22 98.93 27.24 98.93C26.26 98.93 25.46 98.13 25.46 97.15C25.46 96.17 26.26 95.37 27.24 95.37C28.22 95.37 29.02 96.16 29.02 97.15Z" fill="white" fill-opacity="0.25"/>
<path opacity="0.5" d="M42.55 98.93C43.5331 98.93 44.33 98.1331 44.33 97.15C44.33 96.1669 43.5331 95.37 42.55 95.37C41.567 95.37 40.77 96.1669 40.77 97.15C40.77 98.1331 41.567 98.93 42.55 98.93Z" fill="white" fill-opacity="0.25"/>
<path opacity="0.5" d="M57.8501 98.93C58.8331 98.93 59.6301 98.1331 59.6301 97.15C59.6301 96.1669 58.8331 95.37 57.8501 95.37C56.867 95.37 56.0701 96.1669 56.0701 97.15C56.0701 98.1331 56.867 98.93 57.8501 98.93Z" fill="white" fill-opacity="0.25"/>
<path opacity="0.5" d="M74.9399 97.15C74.9399 98.13 74.1399 98.93 73.1599 98.93C72.1799 98.93 71.3799 98.13 71.3799 97.15C71.3799 96.17 72.1799 95.37 73.1599 95.37C74.1399 95.37 74.9399 96.16 74.9399 97.15Z" fill="white" fill-opacity="0.25"/>
<path opacity="0.5" d="M88.4599 98.93C89.443 98.93 90.2399 98.1331 90.2399 97.15C90.2399 96.1669 89.443 95.37 88.4599 95.37C87.4769 95.37 86.6799 96.1669 86.6799 97.15C86.6799 98.1331 87.4769 98.93 88.4599 98.93Z" fill="white" fill-opacity="0.25"/>
<path opacity="0.5" d="M103.77 98.93C104.753 98.93 105.55 98.1331 105.55 97.15C105.55 96.1669 104.753 95.37 103.77 95.37C102.787 95.37 101.99 96.1669 101.99 97.15C101.99 98.1331 102.787 98.93 103.77 98.93Z" fill="white" fill-opacity="0.25"/>
<path opacity="0.5" d="M119.07 98.93C120.053 98.93 120.85 98.1331 120.85 97.15C120.85 96.1669 120.053 95.37 119.07 95.37C118.087 95.37 117.29 96.1669 117.29 97.15C117.29 98.1331 118.087 98.93 119.07 98.93Z" fill="white" fill-opacity="0.25"/>
<path opacity="0.5" d="M134.38 98.93C135.363 98.93 136.16 98.1331 136.16 97.15C136.16 96.1669 135.363 95.37 134.38 95.37C133.397 95.37 132.6 96.1669 132.6 97.15C132.6 98.1331 133.397 98.93 134.38 98.93Z" fill="white" fill-opacity="0.25"/>
</g>
<g opacity="0.5">
<path opacity="0.5" d="M636.91 288.48C637.893 288.48 638.69 287.683 638.69 286.7C638.69 285.717 637.893 284.92 636.91 284.92C635.927 284.92 635.13 285.717 635.13 286.7C635.13 287.683 635.927 288.48 636.91 288.48Z" fill="white" fill-opacity="0.25"/>
<path opacity="0.5" d="M636.91 303.79C637.893 303.79 638.69 302.993 638.69 302.01C638.69 301.027 637.893 300.23 636.91 300.23C635.927 300.23 635.13 301.027 635.13 302.01C635.13 302.993 635.927 303.79 636.91 303.79Z" fill="white" fill-opacity="0.25"/>
<path opacity="0.5" d="M636.91 319.09C637.893 319.09 638.69 318.293 638.69 317.31C638.69 316.327 637.893 315.53 636.91 315.53C635.927 315.53 635.13 316.327 635.13 317.31C635.13 318.293 635.927 319.09 636.91 319.09Z" fill="white" fill-opacity="0.25"/>
<path opacity="0.5" d="M636.91 334.4C637.893 334.4 638.69 333.603 638.69 332.62C638.69 331.637 637.893 330.84 636.91 330.84C635.927 330.84 635.13 331.637 635.13 332.62C635.13 333.603 635.927 334.4 636.91 334.4Z" fill="white" fill-opacity="0.25"/>
<path opacity="0.5" d="M636.91 349.7C637.893 349.7 638.69 348.903 638.69 347.92C638.69 346.937 637.893 346.14 636.91 346.14C635.927 346.14 635.13 346.937 635.13 347.92C635.13 348.903 635.927 349.7 636.91 349.7Z" fill="white" fill-opacity="0.25"/>
<path opacity="0.5" d="M636.91 365.01C637.893 365.01 638.69 364.213 638.69 363.23C638.69 362.247 637.893 361.45 636.91 361.45C635.927 361.45 635.13 362.247 635.13 363.23C635.13 364.213 635.927 365.01 636.91 365.01Z" fill="white" fill-opacity="0.25"/>
<path opacity="0.5" d="M636.91 380.31C637.893 380.31 638.69 379.513 638.69 378.53C638.69 377.547 637.893 376.75 636.91 376.75C635.927 376.75 635.13 377.547 635.13 378.53C635.13 379.513 635.927 380.31 636.91 380.31Z" fill="white" fill-opacity="0.25"/>
<path opacity="0.5" d="M636.91 395.61C635.93 395.61 635.13 394.81 635.13 393.83C635.13 392.85 635.93 392.05 636.91 392.05C637.89 392.05 638.69 392.85 638.69 393.83C638.69 394.82 637.89 395.61 636.91 395.61Z" fill="white" fill-opacity="0.25"/>
<path opacity="0.5" d="M621.61 288.48C620.63 288.48 619.83 287.68 619.83 286.7C619.83 285.72 620.63 284.92 621.61 284.92C622.59 284.92 623.39 285.72 623.39 286.7C623.38 287.68 622.59 288.48 621.61 288.48Z" fill="white" fill-opacity="0.25"/>
<path opacity="0.5" d="M621.61 303.78C620.63 303.78 619.83 302.98 619.83 302C619.83 301.02 620.63 300.22 621.61 300.22C622.59 300.22 623.39 301.02 623.39 302C623.38 302.99 622.59 303.78 621.61 303.78Z" fill="white" fill-opacity="0.25"/>
<path opacity="0.5" d="M621.61 319.09C620.63 319.09 619.83 318.29 619.83 317.31C619.83 316.33 620.63 315.53 621.61 315.53C622.59 315.53 623.39 316.33 623.39 317.31C623.38 318.29 622.59 319.09 621.61 319.09Z" fill="white" fill-opacity="0.25"/>
<path opacity="0.5" d="M621.61 334.39C620.63 334.39 619.83 333.59 619.83 332.61C619.83 331.63 620.63 330.83 621.61 330.83C622.59 330.83 623.39 331.63 623.39 332.61C623.38 333.6 622.59 334.39 621.61 334.39Z" fill="white" fill-opacity="0.25"/>
<path opacity="0.5" d="M621.61 349.7C620.63 349.7 619.83 348.9 619.83 347.92C619.83 346.94 620.63 346.14 621.61 346.14C622.59 346.14 623.39 346.94 623.39 347.92C623.38 348.9 622.59 349.7 621.61 349.7Z" fill="white" fill-opacity="0.25"/>
<path opacity="0.5" d="M621.61 365C620.63 365 619.83 364.2 619.83 363.22C619.83 362.24 620.63 361.44 621.61 361.44C622.59 361.44 623.39 362.24 623.39 363.22C623.39 364.2 622.59 365 621.61 365Z" fill="white" fill-opacity="0.25"/>
<path opacity="0.5" d="M621.61 380.31C620.63 380.31 619.83 379.51 619.83 378.53C619.83 377.55 620.63 376.75 621.61 376.75C622.59 376.75 623.39 377.55 623.39 378.53C623.39 379.51 622.59 380.31 621.61 380.31Z" fill="white" fill-opacity="0.25"/>
<path opacity="0.5" d="M621.61 395.61C620.63 395.61 619.83 394.81 619.83 393.83C619.83 392.85 620.63 392.05 621.61 392.05C622.59 392.05 623.39 392.85 623.39 393.83C623.38 394.82 622.59 395.61 621.61 395.61Z" fill="white" fill-opacity="0.25"/>
<path opacity="0.5" d="M606.3 288.48C607.283 288.48 608.08 287.683 608.08 286.7C608.08 285.717 607.283 284.92 606.3 284.92C605.317 284.92 604.52 285.717 604.52 286.7C604.52 287.683 605.317 288.48 606.3 288.48Z" fill="white" fill-opacity="0.25"/>
<path opacity="0.5" d="M606.3 303.79C607.283 303.79 608.08 302.993 608.08 302.01C608.08 301.027 607.283 300.23 606.3 300.23C605.317 300.23 604.52 301.027 604.52 302.01C604.52 302.993 605.317 303.79 606.3 303.79Z" fill="white" fill-opacity="0.25"/>
<path opacity="0.5" d="M606.3 319.09C607.283 319.09 608.08 318.293 608.08 317.31C608.08 316.327 607.283 315.53 606.3 315.53C605.317 315.53 604.52 316.327 604.52 317.31C604.52 318.293 605.317 319.09 606.3 319.09Z" fill="white" fill-opacity="0.25"/>
<path opacity="0.5" d="M606.3 334.4C607.283 334.4 608.08 333.603 608.08 332.62C608.08 331.637 607.283 330.84 606.3 330.84C605.317 330.84 604.52 331.637 604.52 332.62C604.52 333.603 605.317 334.4 606.3 334.4Z" fill="white" fill-opacity="0.25"/>
<path opacity="0.5" d="M606.3 349.7C607.283 349.7 608.08 348.903 608.08 347.92C608.08 346.937 607.283 346.14 606.3 346.14C605.317 346.14 604.52 346.937 604.52 347.92C604.52 348.903 605.317 349.7 606.3 349.7Z" fill="white" fill-opacity="0.25"/>
<path opacity="0.5" d="M606.3 365.01C607.283 365.01 608.08 364.213 608.08 363.23C608.08 362.247 607.283 361.45 606.3 361.45C605.317 361.45 604.52 362.247 604.52 363.23C604.52 364.213 605.317 365.01 606.3 365.01Z" fill="white" fill-opacity="0.25"/>
<path opacity="0.5" d="M606.3 380.31C607.283 380.31 608.08 379.513 608.08 378.53C608.08 377.547 607.283 376.75 606.3 376.75C605.317 376.75 604.52 377.547 604.52 378.53C604.52 379.513 605.317 380.31 606.3 380.31Z" fill="white" fill-opacity="0.25"/>
<path opacity="0.5" d="M606.3 395.61C605.32 395.61 604.52 394.81 604.52 393.83C604.52 392.85 605.32 392.05 606.3 392.05C607.28 392.05 608.08 392.85 608.08 393.83C608.08 394.82 607.28 395.61 606.3 395.61Z" fill="white" fill-opacity="0.25"/>
<path opacity="0.5" d="M590.99 288.48C591.973 288.48 592.77 287.683 592.77 286.7C592.77 285.717 591.973 284.92 590.99 284.92C590.007 284.92 589.21 285.717 589.21 286.7C589.21 287.683 590.007 288.48 590.99 288.48Z" fill="white" fill-opacity="0.25"/>
<path opacity="0.5" d="M590.99 303.79C591.973 303.79 592.77 302.993 592.77 302.01C592.77 301.027 591.973 300.23 590.99 300.23C590.007 300.23 589.21 301.027 589.21 302.01C589.21 302.993 590.007 303.79 590.99 303.79Z" fill="white" fill-opacity="0.25"/>
<path opacity="0.5" d="M590.99 319.09C591.973 319.09 592.77 318.293 592.77 317.31C592.77 316.327 591.973 315.53 590.99 315.53C590.007 315.53 589.21 316.327 589.21 317.31C589.21 318.293 590.007 319.09 590.99 319.09Z" fill="white" fill-opacity="0.25"/>
<path opacity="0.5" d="M590.99 334.4C591.973 334.4 592.77 333.603 592.77 332.62C592.77 331.637 591.973 330.84 590.99 330.84C590.007 330.84 589.21 331.637 589.21 332.62C589.21 333.603 590.007 334.4 590.99 334.4Z" fill="white" fill-opacity="0.25"/>
<path opacity="0.5" d="M590.99 349.7C591.973 349.7 592.77 348.903 592.77 347.92C592.77 346.937 591.973 346.14 590.99 346.14C590.007 346.14 589.21 346.937 589.21 347.92C589.21 348.903 590.007 349.7 590.99 349.7Z" fill="white" fill-opacity="0.25"/>
<path opacity="0.5" d="M590.99 365.01C591.973 365.01 592.77 364.213 592.77 363.23C592.77 362.247 591.973 361.45 590.99 361.45C590.007 361.45 589.21 362.247 589.21 363.23C589.21 364.213 590.007 365.01 590.99 365.01Z" fill="white" fill-opacity="0.25"/>
<path opacity="0.5" d="M590.99 380.31C591.973 380.31 592.77 379.513 592.77 378.53C592.77 377.547 591.973 376.75 590.99 376.75C590.007 376.75 589.21 377.547 589.21 378.53C589.21 379.513 590.007 380.31 590.99 380.31Z" fill="white" fill-opacity="0.25"/>
<path opacity="0.5" d="M590.99 395.61C590.01 395.61 589.21 394.81 589.21 393.83C589.21 392.85 590.01 392.05 590.99 392.05C591.97 392.05 592.77 392.85 592.77 393.83C592.77 394.82 591.98 395.61 590.99 395.61Z" fill="white" fill-opacity="0.25"/>
<path opacity="0.5" d="M575.69 288.48C576.673 288.48 577.47 287.683 577.47 286.7C577.47 285.717 576.673 284.92 575.69 284.92C574.707 284.92 573.91 285.717 573.91 286.7C573.91 287.683 574.707 288.48 575.69 288.48Z" fill="white" fill-opacity="0.25"/>
<path opacity="0.5" d="M575.69 303.79C576.673 303.79 577.47 302.993 577.47 302.01C577.47 301.027 576.673 300.23 575.69 300.23C574.707 300.23 573.91 301.027 573.91 302.01C573.91 302.993 574.707 303.79 575.69 303.79Z" fill="white" fill-opacity="0.25"/>
<path opacity="0.5" d="M575.69 319.09C576.673 319.09 577.47 318.293 577.47 317.31C577.47 316.327 576.673 315.53 575.69 315.53C574.707 315.53 573.91 316.327 573.91 317.31C573.91 318.293 574.707 319.09 575.69 319.09Z" fill="white" fill-opacity="0.25"/>
<path opacity="0.5" d="M575.69 334.4C576.673 334.4 577.47 333.603 577.47 332.62C577.47 331.637 576.673 330.84 575.69 330.84C574.707 330.84 573.91 331.637 573.91 332.62C573.91 333.603 574.707 334.4 575.69 334.4Z" fill="white" fill-opacity="0.25"/>
<path opacity="0.5" d="M575.69 349.7C576.673 349.7 577.47 348.903 577.47 347.92C577.47 346.937 576.673 346.14 575.69 346.14C574.707 346.14 573.91 346.937 573.91 347.92C573.91 348.903 574.707 349.7 575.69 349.7Z" fill="white" fill-opacity="0.25"/>
<path opacity="0.5" d="M575.69 365.01C576.673 365.01 577.47 364.213 577.47 363.23C577.47 362.247 576.673 361.45 575.69 361.45C574.707 361.45 573.91 362.247 573.91 363.23C573.91 364.213 574.707 365.01 575.69 365.01Z" fill="white" fill-opacity="0.25"/>
<path opacity="0.5" d="M575.69 380.31C576.673 380.31 577.47 379.513 577.47 378.53C577.47 377.547 576.673 376.75 575.69 376.75C574.707 376.75 573.91 377.547 573.91 378.53C573.91 379.513 574.707 380.31 575.69 380.31Z" fill="white" fill-opacity="0.25"/>
<path opacity="0.5" d="M575.69 395.61C574.71 395.61 573.91 394.81 573.91 393.83C573.91 392.85 574.71 392.05 575.69 392.05C576.67 392.05 577.47 392.85 577.47 393.83C577.47 394.82 576.67 395.61 575.69 395.61Z" fill="white" fill-opacity="0.25"/>
<path opacity="0.5" d="M560.38 288.48C561.363 288.48 562.16 287.683 562.16 286.7C562.16 285.717 561.363 284.92 560.38 284.92C559.397 284.92 558.6 285.717 558.6 286.7C558.6 287.683 559.397 288.48 560.38 288.48Z" fill="white" fill-opacity="0.25"/>
<path opacity="0.5" d="M560.38 303.79C561.363 303.79 562.16 302.993 562.16 302.01C562.16 301.027 561.363 300.23 560.38 300.23C559.397 300.23 558.6 301.027 558.6 302.01C558.6 302.993 559.397 303.79 560.38 303.79Z" fill="white" fill-opacity="0.25"/>
<path opacity="0.5" d="M560.38 319.09C561.363 319.09 562.16 318.293 562.16 317.31C562.16 316.327 561.363 315.53 560.38 315.53C559.397 315.53 558.6 316.327 558.6 317.31C558.6 318.293 559.397 319.09 560.38 319.09Z" fill="white" fill-opacity="0.25"/>
<path opacity="0.5" d="M560.38 334.4C561.363 334.4 562.16 333.603 562.16 332.62C562.16 331.637 561.363 330.84 560.38 330.84C559.397 330.84 558.6 331.637 558.6 332.62C558.6 333.603 559.397 334.4 560.38 334.4Z" fill="white" fill-opacity="0.25"/>
<path opacity="0.5" d="M560.38 349.7C561.363 349.7 562.16 348.903 562.16 347.92C562.16 346.937 561.363 346.14 560.38 346.14C559.397 346.14 558.6 346.937 558.6 347.92C558.6 348.903 559.397 349.7 560.38 349.7Z" fill="white" fill-opacity="0.25"/>
<path opacity="0.5" d="M560.38 365.01C561.363 365.01 562.16 364.213 562.16 363.23C562.16 362.247 561.363 361.45 560.38 361.45C559.397 361.45 558.6 362.247 558.6 363.23C558.6 364.213 559.397 365.01 560.38 365.01Z" fill="white" fill-opacity="0.25"/>
<path opacity="0.5" d="M560.38 380.31C561.363 380.31 562.16 379.513 562.16 378.53C562.16 377.547 561.363 376.75 560.38 376.75C559.397 376.75 558.6 377.547 558.6 378.53C558.6 379.513 559.397 380.31 560.38 380.31Z" fill="white" fill-opacity="0.25"/>
<path opacity="0.5" d="M560.38 395.61C559.4 395.61 558.6 394.81 558.6 393.83C558.6 392.85 559.4 392.05 560.38 392.05C561.36 392.05 562.16 392.85 562.16 393.83C562.16 394.82 561.36 395.61 560.38 395.61Z" fill="white" fill-opacity="0.25"/>
</g>
<g opacity="0.5">
<path opacity="0.5" d="M441.52 57.54C441.52 58.52 440.72 59.32 439.74 59.32C438.76 59.32 437.96 58.52 437.96 57.54C437.96 56.56 438.76 55.76 439.74 55.76C440.72 55.76 441.52 56.56 441.52 57.54Z" fill="white" fill-opacity="0.25"/>
<path opacity="0.5" d="M456.83 57.54C456.83 58.52 456.03 59.32 455.05 59.32C454.07 59.32 453.27 58.52 453.27 57.54C453.27 56.56 454.07 55.76 455.05 55.76C456.03 55.77 456.83 56.56 456.83 57.54Z" fill="white" fill-opacity="0.25"/>
<path opacity="0.5" d="M472.13 57.54C472.13 58.52 471.33 59.32 470.35 59.32C469.37 59.32 468.57 58.52 468.57 57.54C468.57 56.56 469.37 55.76 470.35 55.76C471.33 55.76 472.13 56.56 472.13 57.54Z" fill="white" fill-opacity="0.25"/>
<path opacity="0.5" d="M441.52 72.85C441.52 73.83 440.72 74.63 439.74 74.63C438.76 74.63 437.96 73.83 437.96 72.85C437.96 71.87 438.76 71.07 439.74 71.07C440.72 71.07 441.52 71.87 441.52 72.85Z" fill="white" fill-opacity="0.25"/>
<path opacity="0.5" d="M456.83 72.85C456.83 73.83 456.03 74.63 455.05 74.63C454.07 74.63 453.27 73.83 453.27 72.85C453.27 71.87 454.07 71.07 455.05 71.07C456.03 71.07 456.83 71.87 456.83 72.85Z" fill="white" fill-opacity="0.25"/>
<path opacity="0.5" d="M472.13 72.85C472.13 73.83 471.33 74.63 470.35 74.63C469.37 74.63 468.57 73.83 468.57 72.85C468.57 71.87 469.37 71.07 470.35 71.07C471.33 71.07 472.13 71.87 472.13 72.85Z" fill="white" fill-opacity="0.25"/>
<path opacity="0.5" d="M441.52 88.15C441.52 89.13 440.72 89.93 439.74 89.93C438.76 89.93 437.96 89.13 437.96 88.15C437.96 87.17 438.76 86.37 439.74 86.37C440.72 86.37 441.52 87.17 441.52 88.15Z" fill="white" fill-opacity="0.25"/>
<path opacity="0.5" d="M456.83 88.15C456.83 89.13 456.03 89.93 455.05 89.93C454.07 89.93 453.27 89.13 453.27 88.15C453.27 87.17 454.07 86.37 455.05 86.37C456.03 86.38 456.83 87.17 456.83 88.15Z" fill="white" fill-opacity="0.25"/>
<path opacity="0.5" d="M472.13 88.15C472.13 89.13 471.33 89.93 470.35 89.93C469.37 89.93 468.57 89.13 468.57 88.15C468.57 87.17 469.37 86.37 470.35 86.37C471.33 86.37 472.13 87.17 472.13 88.15Z" fill="white" fill-opacity="0.25"/>
</g>
<g opacity="0.5">
<path opacity="0.5" d="M298.62 193.53C298.62 194.51 297.82 195.31 296.84 195.31C295.86 195.31 295.06 194.51 295.06 193.53C295.06 192.55 295.86 191.75 296.84 191.75C297.83 191.75 298.62 192.54 298.62 193.53Z" fill="white" fill-opacity="0.25"/>
<path opacity="0.5" d="M312.15 195.31C313.133 195.31 313.93 194.513 313.93 193.53C313.93 192.547 313.133 191.75 312.15 191.75C311.167 191.75 310.37 192.547 310.37 193.53C310.37 194.513 311.167 195.31 312.15 195.31Z" fill="white" fill-opacity="0.25"/>
<path opacity="0.5" d="M327.45 195.31C328.433 195.31 329.23 194.513 329.23 193.53C329.23 192.547 328.433 191.75 327.45 191.75C326.467 191.75 325.67 192.547 325.67 193.53C325.67 194.513 326.467 195.31 327.45 195.31Z" fill="white" fill-opacity="0.25"/>
<path opacity="0.5" d="M298.62 208.83C298.62 209.81 297.82 210.61 296.84 210.61C295.86 210.61 295.06 209.81 295.06 208.83C295.06 207.85 295.86 207.05 296.84 207.05C297.83 207.05 298.62 207.85 298.62 208.83Z" fill="white" fill-opacity="0.25"/>
<path opacity="0.5" d="M312.15 210.61C313.133 210.61 313.93 209.813 313.93 208.83C313.93 207.847 313.133 207.05 312.15 207.05C311.167 207.05 310.37 207.847 310.37 208.83C310.37 209.813 311.167 210.61 312.15 210.61Z" fill="white" fill-opacity="0.25"/>
<path opacity="0.5" d="M327.45 210.61C328.433 210.61 329.23 209.813 329.23 208.83C329.23 207.847 328.433 207.05 327.45 207.05C326.467 207.05 325.67 207.847 325.67 208.83C325.67 209.813 326.467 210.61 327.45 210.61Z" fill="white" fill-opacity="0.25"/>
<path opacity="0.5" d="M298.62 224.14C298.62 225.12 297.82 225.92 296.84 225.92C295.86 225.92 295.06 225.12 295.06 224.14C295.06 223.16 295.86 222.36 296.84 222.36C297.83 222.36 298.62 223.16 298.62 224.14Z" fill="white" fill-opacity="0.25"/>
<path opacity="0.5" d="M313.93 224.14C313.93 225.12 313.13 225.92 312.15 225.92C311.17 225.92 310.37 225.12 310.37 224.14C310.37 223.16 311.17 222.36 312.15 222.36C313.13 222.36 313.93 223.16 313.93 224.14Z" fill="white" fill-opacity="0.25"/>
<path opacity="0.5" d="M329.23 224.14C329.23 225.12 328.43 225.92 327.45 225.92C326.47 225.92 325.67 225.12 325.67 224.14C325.67 223.16 326.47 222.36 327.45 222.36C328.44 222.36 329.23 223.16 329.23 224.14Z" fill="white" fill-opacity="0.25"/>
</g>
<g opacity="0.5">
<path opacity="0.5" d="M433.51 495.39L369.03 559.87" stroke="white" stroke-width="2.1221" stroke-miterlimit="10"/>
<path opacity="0.5" d="M429.32 491.2L364.84 555.68" stroke="white" stroke-width="2.1221" stroke-miterlimit="10"/>
<path opacity="0.5" d="M425.13 487.01L360.65 551.49" stroke="white" stroke-width="2.1221" stroke-miterlimit="10"/>
<path opacity="0.5" d="M420.94 482.82L356.46 547.3" stroke="white" stroke-width="2.1221" stroke-miterlimit="10"/>
<path opacity="0.5" d="M416.75 478.63L352.27 543.11" stroke="white" stroke-width="2.1221" stroke-miterlimit="10"/>
<path opacity="0.5" d="M412.56 474.44L348.08 538.92" stroke="white" stroke-width="2.1221" stroke-miterlimit="10"/>
<path opacity="0.5" d="M408.37 470.25L343.89 534.73" stroke="white" stroke-width="2.1221" stroke-miterlimit="10"/>
<path opacity="0.5" d="M404.18 466.06L339.7 530.54" stroke="white" stroke-width="2.1221" stroke-miterlimit="10"/>
<path opacity="0.5" d="M399.99 461.87L335.51 526.35" stroke="white" stroke-width="2.1221" stroke-miterlimit="10"/>
<path opacity="0.5" d="M395.8 457.68L331.32 522.16" stroke="white" stroke-width="2.1221" stroke-miterlimit="10"/>
<path opacity="0.5" d="M391.61 453.49L327.13 517.97" stroke="white" stroke-width="2.1221" stroke-miterlimit="10"/>
<path opacity="0.5" d="M387.42 449.3L322.95 513.78" stroke="white" stroke-width="2.1221" stroke-miterlimit="10"/>
<path opacity="0.5" d="M383.24 445.12L318.76 509.59" stroke="white" stroke-width="2.1221" stroke-miterlimit="10"/>
<path opacity="0.5" d="M379.05 440.93L314.57 505.4" stroke="white" stroke-width="2.1221" stroke-miterlimit="10"/>
<path opacity="0.5" d="M374.86 436.74L310.38 501.22" stroke="white" stroke-width="2.1221" stroke-miterlimit="10"/>
</g>
<g opacity="0.81">
<g opacity="0.81">
<path opacity="0.81" d="M856.325 104.569C914.868 46.0257 914.868 -48.8912 856.325 -107.434C797.782 -165.977 702.866 -165.977 644.323 -107.434C585.78 -48.8912 585.78 46.0257 644.323 104.569C702.866 163.112 797.782 163.112 856.325 104.569Z" stroke="white" stroke-width="1.0531" stroke-linecap="round" stroke-linejoin="round"/>
</g>
<g opacity="0.81">
<path opacity="0.81" d="M750.33 142.74C829.958 142.74 894.51 78.1884 894.51 -1.43999C894.51 -81.0684 829.958 -145.62 750.33 -145.62C670.701 -145.62 606.15 -81.0684 606.15 -1.43999C606.15 78.1884 670.701 142.74 750.33 142.74Z" stroke="white" stroke-width="1.1458" stroke-linecap="round" stroke-linejoin="round"/>
</g>
<g opacity="0.81">
<path opacity="0.81" d="M848.229 96.4723C902.301 42.4008 902.301 -45.2664 848.229 -99.3379C794.158 -153.409 706.49 -153.409 652.419 -99.3378C598.348 -45.2664 598.348 42.4008 652.419 96.4723C706.49 150.544 794.158 150.544 848.229 96.4723Z" stroke="white" stroke-width="1.2385" stroke-linecap="round" stroke-linejoin="round"/>
</g>
<g opacity="0.81">
<path opacity="0.81" d="M750.33 131.29C823.635 131.29 883.06 71.8648 883.06 -1.43999C883.06 -74.7447 823.635 -134.17 750.33 -134.17C677.025 -134.17 617.6 -74.7447 617.6 -1.43999C617.6 71.8648 677.025 131.29 750.33 131.29Z" stroke="white" stroke-width="1.3312" stroke-linecap="round" stroke-linejoin="round"/>
</g>
<g opacity="0.81">
<path opacity="0.81" d="M750.33 125.57C820.476 125.57 877.34 68.7057 877.34 -1.43999C877.34 -71.5857 820.476 -128.45 750.33 -128.45C680.184 -128.45 623.32 -71.5857 623.32 -1.43999C623.32 68.7057 680.184 125.57 750.33 125.57Z" stroke="white" stroke-width="1.4239" stroke-linecap="round" stroke-linejoin="round"/>
</g>
<g opacity="0.81">
<path opacity="0.81" d="M750.33 119.84C817.311 119.84 871.61 65.5411 871.61 -1.43999C871.61 -68.4211 817.311 -122.72 750.33 -122.72C683.349 -122.72 629.05 -68.4211 629.05 -1.43999C629.05 65.5411 683.349 119.84 750.33 119.84Z" stroke="white" stroke-width="1.5166" stroke-linecap="round" stroke-linejoin="round"/>
</g>
<g opacity="0.81">
<path opacity="0.81" d="M750.33 114.11C814.146 114.11 865.88 62.3765 865.88 -1.43998C865.88 -65.2565 814.146 -116.99 750.33 -116.99C686.513 -116.99 634.78 -65.2565 634.78 -1.43998C634.78 62.3765 686.513 114.11 750.33 114.11Z" stroke="white" stroke-width="1.6093" stroke-linecap="round" stroke-linejoin="round"/>
</g>
<g opacity="0.81">
<path opacity="0.81" d="M750.33 108.39C810.987 108.39 860.16 59.2174 860.16 -1.43998C860.16 -62.0974 810.987 -111.27 750.33 -111.27C689.673 -111.27 640.5 -62.0974 640.5 -1.43998C640.5 59.2174 689.673 108.39 750.33 108.39Z" stroke="white" stroke-width="1.702" stroke-linecap="round" stroke-linejoin="round"/>
</g>
<g opacity="0.81">
<path opacity="0.81" d="M750.33 102.66C807.823 102.66 854.43 56.0529 854.43 -1.43998C854.43 -58.9328 807.823 -105.54 750.33 -105.54C692.837 -105.54 646.23 -58.9328 646.23 -1.43998C646.23 56.0529 692.837 102.66 750.33 102.66Z" stroke="white" stroke-width="1.7948" stroke-linecap="round" stroke-linejoin="round"/>
</g>
<g opacity="0.81">
<path opacity="0.81" d="M750.33 96.94C804.664 96.94 848.71 52.8938 848.71 -1.43998C848.71 -55.7738 804.664 -99.82 750.33 -99.82C695.996 -99.82 651.95 -55.7738 651.95 -1.43998C651.95 52.8938 695.996 96.94 750.33 96.94Z" stroke="white" stroke-width="1.8875" stroke-linecap="round" stroke-linejoin="round"/>
</g>
<g opacity="0.81">
<path opacity="0.81" d="M750.33 91.21C801.499 91.21 842.98 49.7292 842.98 -1.43999C842.98 -52.6092 801.499 -94.09 750.33 -94.09C699.161 -94.09 657.68 -52.6092 657.68 -1.43999C657.68 49.7292 699.161 91.21 750.33 91.21Z" stroke="white" stroke-width="1.9802" stroke-linecap="round" stroke-linejoin="round"/>
</g>
<g opacity="0.81">
<path opacity="0.81" d="M750.33 85.48C798.335 85.48 837.25 46.5646 837.25 -1.43999C837.25 -49.4446 798.335 -88.36 750.33 -88.36C702.325 -88.36 663.41 -49.4446 663.41 -1.43999C663.41 46.5646 702.325 85.48 750.33 85.48Z" stroke="white" stroke-width="2.0729" stroke-linecap="round" stroke-linejoin="round"/>
</g>
<g opacity="0.81">
<path opacity="0.81" d="M753.247 79.7614C798.066 78.1649 833.104 40.538 831.508 -4.28058C829.911 -49.0992 792.284 -84.1376 747.466 -82.5411C702.647 -80.9446 667.609 -43.3178 669.205 1.50086C670.802 46.3195 708.429 81.3579 753.247 79.7614Z" stroke="white" stroke-width="2.1656" stroke-linecap="round" stroke-linejoin="round"/>
</g>
<g opacity="0.81">
<path opacity="0.81" d="M750.33 74.03C792.011 74.03 825.8 40.2409 825.8 -1.43999C825.8 -43.1209 792.011 -76.91 750.33 -76.91C708.649 -76.91 674.86 -43.1209 674.86 -1.43999C674.86 40.2409 708.649 74.03 750.33 74.03Z" stroke="white" stroke-width="2.2583" stroke-linecap="round" stroke-linejoin="round"/>
</g>
<g opacity="0.81">
<path opacity="0.81" d="M752.84 68.3183C791.338 66.9469 821.436 34.6258 820.065 -3.87296C818.693 -42.3717 786.372 -72.4694 747.873 -71.098C709.375 -69.7266 679.277 -37.4055 680.648 1.09324C682.02 39.592 714.341 69.6897 752.84 68.3183Z" stroke="white" stroke-width="2.351" stroke-linecap="round" stroke-linejoin="round"/>
</g>
<g opacity="0.81">
<path opacity="0.81" d="M750.33 62.58C785.687 62.58 814.35 33.9173 814.35 -1.43998C814.35 -36.7972 785.687 -65.46 750.33 -65.46C714.973 -65.46 686.31 -36.7972 686.31 -1.43998C686.31 33.9173 714.973 62.58 750.33 62.58Z" stroke="white" stroke-width="2.4437" stroke-linecap="round" stroke-linejoin="round"/>
</g>
<g opacity="0.81">
<path opacity="0.81" d="M752.432 56.8652C784.605 55.7191 809.758 28.7084 808.612 -3.46498C807.466 -35.6383 780.455 -60.7909 748.281 -59.6449C716.108 -58.4988 690.955 -31.4881 692.101 0.685265C693.248 32.8586 720.258 58.0112 752.432 56.8652Z" stroke="white" stroke-width="2.5364" stroke-linecap="round" stroke-linejoin="round"/>
</g>
<g opacity="0.81">
<path opacity="0.81" d="M750.33 51.13C779.363 51.13 802.9 27.5936 802.9 -1.43998C802.9 -30.4736 779.363 -54.01 750.33 -54.01C721.296 -54.01 697.76 -30.4736 697.76 -1.43998C697.76 27.5936 721.296 51.13 750.33 51.13Z" stroke="white" stroke-width="2.6292" stroke-linecap="round" stroke-linejoin="round"/>
</g>
<g opacity="0.81">
<path opacity="0.81" d="M752.024 45.422C777.878 44.5011 798.089 22.7961 797.168 -3.05737C796.248 -28.9109 774.543 -49.1227 748.689 -48.2018C722.836 -47.2808 702.624 -25.5759 703.545 0.277637C704.466 26.1311 726.171 46.343 752.024 45.422Z" stroke="white" stroke-width="2.7219" stroke-linecap="round" stroke-linejoin="round"/>
</g>
<g opacity="0.81">
<path opacity="0.81" d="M750.33 39.68C773.04 39.68 791.45 21.27 791.45 -1.43999C791.45 -24.1499 773.04 -42.56 750.33 -42.56C727.62 -42.56 709.21 -24.1499 709.21 -1.43999C709.21 21.27 727.62 39.68 750.33 39.68Z" stroke="white" stroke-width="2.8146" stroke-linecap="round" stroke-linejoin="round"/>
</g>
<g opacity="0.81">
<path opacity="0.81" d="M751.616 33.9789C771.15 33.2831 786.421 16.8839 785.725 -2.64976C785.029 -22.1834 768.63 -37.4545 749.097 -36.7586C729.563 -36.0628 714.292 -19.6636 714.988 -0.129998C715.683 19.4036 732.083 34.6747 751.616 33.9789Z" stroke="white" stroke-width="2.9073" stroke-linecap="round" stroke-linejoin="round"/>
</g>
<g opacity="0.81">
<path opacity="0.81" d="M750.33 28.22C766.711 28.22 779.99 14.9408 779.99 -1.43999C779.99 -17.8208 766.711 -31.1 750.33 -31.1C733.949 -31.1 720.67 -17.8208 720.67 -1.43999C720.67 14.9408 733.949 28.22 750.33 28.22Z" stroke="white" stroke-width="3" stroke-linecap="round" stroke-linejoin="round"/>
</g>
</g>
<path opacity="0.5" d="M80.03 340.11C94.94 355.02 94.94 379.2 80.03 394.12L-86.13 560.28C-101.04 575.19 -125.22 575.19 -140.14 560.28C-155.05 545.37 -155.05 521.19 -140.14 506.27L26.02 340.11C40.94 325.2 65.12 325.2 80.03 340.11Z" fill="white" fill-opacity="0.25"/>
</svg>