<svg width="188" height="47" viewBox="0 0 188 47" fill="none" xmlns="http://www.w3.org/2000/svg">
<circle cx="18.5764" cy="9.56957" r="9.56957" fill="#FFAB00"/>
<circle cx="36.0266" cy="32.6491" r="13.51" fill="#36B37E"/>
<circle cx="8.72519" cy="27.8644" r="8.72519" fill="#FF5630"/>
<path d="M66.125 32V14.5455H73.6591C74.9545 14.5455 76.0881 14.8011 77.0597 15.3125C78.0313 15.8239 78.7869 16.5426 79.3267 17.4688C79.8665 18.3949 80.1364 19.4773 80.1364 20.7159C80.1364 21.9659 79.858 23.0483 79.3011 23.9631C78.75 24.8778 77.9744 25.5824 76.9744 26.0767C75.9801 26.571 74.8182 26.8182 73.4886 26.8182H68.9886V23.1364H72.5341C73.0909 23.1364 73.5653 23.0398 73.9574 22.8466C74.3551 22.6477 74.6591 22.3665 74.8693 22.0028C75.0852 21.6392 75.1932 21.2102 75.1932 20.7159C75.1932 20.2159 75.0852 19.7898 74.8693 19.4375C74.6591 19.0795 74.3551 18.8068 73.9574 18.6193C73.5653 18.4261 73.0909 18.3295 72.5341 18.3295H70.8636V32H66.125ZM98.7841 23.2727C98.7841 25.2159 98.4063 26.8551 97.6506 28.1903C96.8949 29.5199 95.875 30.5284 94.5909 31.2159C93.3068 31.8977 91.875 32.2386 90.2955 32.2386C88.7045 32.2386 87.267 31.8949 85.983 31.2074C84.7045 30.5142 83.6875 29.5028 82.9318 28.1733C82.1818 26.8381 81.8068 25.2045 81.8068 23.2727C81.8068 21.3295 82.1818 19.6932 82.9318 18.3636C83.6875 17.0284 84.7045 16.0199 85.983 15.3381C87.267 14.6506 88.7045 14.3068 90.2955 14.3068C91.875 14.3068 93.3068 14.6506 94.5909 15.3381C95.875 16.0199 96.8949 17.0284 97.6506 18.3636C98.4063 19.6932 98.7841 21.3295 98.7841 23.2727ZM93.9091 23.2727C93.9091 22.2273 93.7699 21.3466 93.4915 20.6307C93.2188 19.9091 92.8125 19.3636 92.2727 18.9943C91.7386 18.6193 91.0795 18.4318 90.2955 18.4318C89.5114 18.4318 88.8494 18.6193 88.3097 18.9943C87.7756 19.3636 87.3693 19.9091 87.0909 20.6307C86.8182 21.3466 86.6818 22.2273 86.6818 23.2727C86.6818 24.3182 86.8182 25.2017 87.0909 25.9233C87.3693 26.6392 87.7756 27.1847 88.3097 27.5597C88.8494 27.929 89.5114 28.1136 90.2955 28.1136C91.0795 28.1136 91.7386 27.929 92.2727 27.5597C92.8125 27.1847 93.2188 26.6392 93.4915 25.9233C93.7699 25.2017 93.9091 24.3182 93.9091 23.2727ZM104.307 32L99.1591 14.5455H104.443L106.83 25.2841H106.966L109.795 14.5455H113.955L116.784 25.3182H116.92L119.307 14.5455H124.591L119.443 32H114.909L111.943 22.25H111.807L108.841 32H104.307ZM126.125 32V14.5455H138.705V18.3636H130.864V21.3636H138.057V25.1818H130.864V28.1818H138.67V32H126.125ZM141.055 32V14.5455H148.589C149.884 14.5455 151.018 14.7812 151.989 15.2528C152.961 15.7244 153.717 16.4034 154.256 17.2898C154.796 18.1761 155.066 19.2386 155.066 20.4773C155.066 21.7273 154.788 22.7812 154.231 23.6392C153.68 24.4972 152.904 25.1449 151.904 25.5824C150.91 26.0199 149.748 26.2386 148.418 26.2386H143.918V22.5568H147.464C148.021 22.5568 148.495 22.4886 148.887 22.3523C149.285 22.2102 149.589 21.9858 149.799 21.679C150.015 21.3722 150.123 20.9716 150.123 20.4773C150.123 19.9773 150.015 19.571 149.799 19.2585C149.589 18.9403 149.285 18.7074 148.887 18.5597C148.495 18.4062 148.021 18.3295 147.464 18.3295H145.793V32H141.055ZM151.282 23.9886L155.646 32H150.498L146.237 23.9886H151.282ZM157.086 32V14.5455H164.62C165.915 14.5455 167.049 14.7812 168.021 15.2528C168.992 15.7244 169.748 16.4034 170.288 17.2898C170.827 18.1761 171.097 19.2386 171.097 20.4773C171.097 21.7273 170.819 22.7812 170.262 23.6392C169.711 24.4972 168.935 25.1449 167.935 25.5824C166.941 26.0199 165.779 26.2386 164.45 26.2386H159.95V22.5568H163.495C164.052 22.5568 164.526 22.4886 164.918 22.3523C165.316 22.2102 165.62 21.9858 165.83 21.679C166.046 21.3722 166.154 20.9716 166.154 20.4773C166.154 19.9773 166.046 19.571 165.83 19.2585C165.62 18.9403 165.316 18.7074 164.918 18.5597C164.526 18.4062 164.052 18.3295 163.495 18.3295H161.825V32H157.086ZM167.313 23.9886L171.677 32H166.529L162.268 23.9886H167.313ZM173.117 32V14.5455H180.651C181.947 14.5455 183.08 14.7812 184.052 15.2528C185.023 15.7244 185.779 16.4034 186.319 17.2898C186.859 18.1761 187.129 19.2386 187.129 20.4773C187.129 21.7273 186.85 22.7812 186.293 23.6392C185.742 24.4972 184.967 25.1449 183.967 25.5824C182.972 26.0199 181.81 26.2386 180.481 26.2386H175.981V22.5568H179.526C180.083 22.5568 180.558 22.4886 180.95 22.3523C181.347 22.2102 181.651 21.9858 181.862 21.679C182.077 21.3722 182.185 20.9716 182.185 20.4773C182.185 19.9773 182.077 19.571 181.862 19.2585C181.651 18.9403 181.347 18.7074 180.95 18.5597C180.558 18.4062 180.083 18.3295 179.526 18.3295H177.856V32H173.117ZM183.344 23.9886L187.708 32H182.56L178.299 23.9886H183.344Z" fill="#1B3157" fill-opacity="0.8"/>
</svg>
